<?xml version="1.0" encoding="utf-8"?>
<!-- Uploaded to: SVG Repo, www.svgrepo.com, Generator: SVG Repo Mixer Tools -->
<!DOCTYPE svg PUBLIC "-//W3C//DTD SVG 1.1//EN" "http://www.w3.org/Graphics/SVG/1.1/DTD/svg11.dtd">
<svg xmlns="http://www.w3.org/2000/svg" xmlns:xlink="http://www.w3.org/1999/xlink" version="1.1" id="Layer_1"  width="512" height="512" viewBox="0 0 512 512" enable-background="new 0 0 512 512" xml:space="preserve">
<g id="computer_case">
	<path fill="#434A54" d="M469.344,474.734c0,5.891-4.781,10.672-10.688,10.672c-5.875,0-10.656-4.781-10.656-10.672   s4.781-10.656,10.656-10.656C464.562,464.078,469.344,468.844,469.344,474.734z"/>
	<g>
		<path fill="#AC92EB" d="M480,26.734H10.664v448H480c11.781,0,21.344-9.547,21.344-21.328V48.078    C501.344,36.297,491.781,26.734,480,26.734z M234.664,90.734c5.891,0,10.672,4.781,10.672,10.672s-4.781,10.672-10.672,10.672    S224,107.297,224,101.406S228.773,90.734,234.664,90.734z M85.336,176.078c-5.891,0-10.672-4.781-10.672-10.672    s4.781-10.672,10.672-10.672S96,159.516,96,165.406S91.227,176.078,85.336,176.078z M96,208.078    c0,5.891-4.773,10.656-10.664,10.656s-10.672-4.766-10.672-10.656s4.781-10.672,10.672-10.672S96,202.188,96,208.078z     M106.664,176.078c5.891,0,10.672,4.766,10.672,10.656s-4.781,10.672-10.672,10.672S96,192.625,96,186.734    S100.773,176.078,106.664,176.078z M96,144.078c0-5.891,4.773-10.672,10.664-10.672s10.672,4.781,10.672,10.672    s-4.781,10.656-10.672,10.656S96,149.969,96,144.078z M128,197.406c5.891,0,10.664,4.781,10.664,10.672    s-4.773,10.656-10.664,10.656s-10.664-4.766-10.664-10.656S122.109,197.406,128,197.406z M128,176.078    c-5.891,0-10.664-4.781-10.664-10.672s4.773-10.672,10.664-10.672s10.664,4.781,10.664,10.672S133.891,176.078,128,176.078z     M149.336,176.078c5.891,0,10.664,4.766,10.664,10.656s-4.773,10.672-10.664,10.672s-10.672-4.781-10.672-10.672    S143.445,176.078,149.336,176.078z M138.664,144.078c0-5.891,4.781-10.672,10.672-10.672S160,138.188,160,144.078    s-4.773,10.656-10.664,10.656S138.664,149.969,138.664,144.078z M170.664,197.406c5.891,0,10.672,4.781,10.672,10.672    s-4.781,10.656-10.672,10.656S160,213.969,160,208.078S164.773,197.406,170.664,197.406z M170.664,176.078    c-5.891,0-10.664-4.781-10.664-10.672s4.773-10.672,10.664-10.672s10.672,4.781,10.672,10.672S176.555,176.078,170.664,176.078z     M192,176.078c5.891,0,10.664,4.766,10.664,10.656s-4.773,10.672-10.664,10.672s-10.664-4.781-10.664-10.672    S186.109,176.078,192,176.078z M181.336,144.078c0-5.891,4.773-10.672,10.664-10.672s10.664,4.781,10.664,10.672    s-4.773,10.656-10.664,10.656S181.336,149.969,181.336,144.078z M213.336,197.406c5.891,0,10.664,4.781,10.664,10.672    s-4.773,10.656-10.664,10.656s-10.672-4.766-10.672-10.656S207.445,197.406,213.336,197.406z M213.336,176.078    c-5.891,0-10.672-4.781-10.672-10.672s4.781-10.672,10.672-10.672S224,159.516,224,165.406S219.227,176.078,213.336,176.078z     M234.664,176.078c5.891,0,10.672,4.766,10.672,10.656s-4.781,10.672-10.672,10.672S224,192.625,224,186.734    S228.773,176.078,234.664,176.078z M234.664,154.734c-5.891,0-10.664-4.766-10.664-10.656s4.773-10.672,10.664-10.672    s10.672,4.781,10.672,10.672S240.555,154.734,234.664,154.734z M213.336,112.078c5.891,0,10.664,4.766,10.664,10.656    s-4.773,10.672-10.664,10.672s-10.672-4.781-10.672-10.672S207.445,112.078,213.336,112.078z M192,90.734    c5.891,0,10.664,4.781,10.664,10.672s-4.773,10.672-10.664,10.672s-10.664-4.781-10.664-10.672S186.109,90.734,192,90.734z     M170.664,112.078c5.891,0,10.672,4.766,10.672,10.656s-4.781,10.672-10.672,10.672S160,128.625,160,122.734    S164.773,112.078,170.664,112.078z M149.336,90.734c5.891,0,10.664,4.781,10.664,10.672s-4.773,10.672-10.664,10.672    s-10.672-4.781-10.672-10.672S143.445,90.734,149.336,90.734z M128,112.078c5.891,0,10.664,4.766,10.664,10.656    s-4.773,10.672-10.664,10.672s-10.664-4.781-10.664-10.672S122.109,112.078,128,112.078z M106.664,90.734    c5.891,0,10.672,4.781,10.672,10.672s-4.781,10.672-10.672,10.672S96,107.297,96,101.406S100.773,90.734,106.664,90.734z     M85.336,112.078c5.891,0,10.664,4.766,10.664,10.656s-4.773,10.672-10.664,10.672s-10.672-4.781-10.672-10.672    S79.445,112.078,85.336,112.078z M64,90.734c5.891,0,10.664,4.781,10.664,10.672S69.891,112.078,64,112.078    s-10.664-4.781-10.664-10.672S58.109,90.734,64,90.734z M64,133.406c5.891,0,10.664,4.781,10.664,10.672    S69.891,154.734,64,154.734s-10.664-4.766-10.664-10.656S58.109,133.406,64,133.406z M64,176.078    c5.891,0,10.664,4.766,10.664,10.656S69.891,197.406,64,197.406s-10.664-4.781-10.664-10.672S58.109,176.078,64,176.078z     M64,240.078c-5.891,0-10.664-4.781-10.664-10.672S58.109,218.734,64,218.734s10.664,4.781,10.664,10.672    S69.891,240.078,64,240.078z M85.336,261.406c-5.891,0-10.672-4.781-10.672-10.672s4.781-10.656,10.672-10.656    S96,244.844,96,250.734S91.227,261.406,85.336,261.406z M106.664,240.078c-5.891,0-10.664-4.781-10.664-10.672    s4.773-10.672,10.664-10.672s10.672,4.781,10.672,10.672S112.555,240.078,106.664,240.078z M128,261.406    c-5.891,0-10.664-4.781-10.664-10.672s4.773-10.656,10.664-10.656s10.664,4.766,10.664,10.656S133.891,261.406,128,261.406z     M149.336,240.078c-5.891,0-10.672-4.781-10.672-10.672s4.781-10.672,10.672-10.672S160,223.516,160,229.406    S155.227,240.078,149.336,240.078z M170.664,261.406c-5.891,0-10.664-4.781-10.664-10.672s4.773-10.656,10.664-10.656    s10.672,4.766,10.672,10.656S176.555,261.406,170.664,261.406z M192,240.078c-5.891,0-10.664-4.781-10.664-10.672    s4.773-10.672,10.664-10.672s10.664,4.781,10.664,10.672S197.891,240.078,192,240.078z M213.336,261.406    c-5.891,0-10.672-4.781-10.672-10.672s4.781-10.656,10.672-10.656S224,244.844,224,250.734S219.227,261.406,213.336,261.406z     M234.664,240.078c-5.891,0-10.664-4.781-10.664-10.672s4.773-10.672,10.664-10.672s10.672,4.781,10.672,10.672    S240.555,240.078,234.664,240.078z M256,261.406c-5.891,0-10.664-4.781-10.664-10.672s4.773-10.656,10.664-10.656    s10.664,4.766,10.664,10.656S261.891,261.406,256,261.406z M256,218.734c-5.891,0-10.664-4.766-10.664-10.656    s4.773-10.672,10.664-10.672s10.664,4.781,10.664,10.672S261.891,218.734,256,218.734z M256,176.078    c-5.891,0-10.664-4.781-10.664-10.672s4.773-10.672,10.664-10.672s10.664,4.781,10.664,10.672S261.891,176.078,256,176.078z     M256,133.406c-5.891,0-10.664-4.781-10.664-10.672s4.773-10.656,10.664-10.656s10.664,4.766,10.664,10.656    S261.891,133.406,256,133.406z M373.344,176.078c-5.906,0-10.688-4.781-10.688-10.672s4.781-10.672,10.688-10.672    c5.875,0,10.656,4.781,10.656,10.672S379.219,176.078,373.344,176.078z M373.344,133.406c-5.906,0-10.688-4.781-10.688-10.672    s4.781-10.656,10.688-10.656c5.875,0,10.656,4.766,10.656,10.656S379.219,133.406,373.344,133.406z M373.344,90.734    c-5.906,0-10.688-4.766-10.688-10.656s4.781-10.672,10.688-10.672c5.875,0,10.656,4.781,10.656,10.672    S379.219,90.734,373.344,90.734z"/>
	</g>
	<path fill="#434A54" d="M10.664,389.406C4.773,389.406,0,394.188,0,400.078v32c0,5.891,4.773,10.656,10.664,10.656   s10.672-4.766,10.672-10.656v-32C21.336,394.188,16.555,389.406,10.664,389.406z"/>
	<path fill="#434A54" d="M53.336,474.734c0,5.891-4.781,10.672-10.672,10.672S32,480.625,32,474.734s4.773-10.656,10.664-10.656   S53.336,468.844,53.336,474.734z"/>
	<path fill="#967ADC" d="M288,26.594v448.312h170.656V26.594H288z M373.344,176.078c-5.906,0-10.688-4.781-10.688-10.672   s4.781-10.672,10.688-10.672c5.875,0,10.656,4.781,10.656,10.672S379.219,176.078,373.344,176.078z M373.344,133.406   c-5.906,0-10.688-4.781-10.688-10.672s4.781-10.656,10.688-10.656c5.875,0,10.656,4.766,10.656,10.656   S379.219,133.406,373.344,133.406z M373.344,90.734c-5.906,0-10.688-4.766-10.688-10.656s4.781-10.672,10.688-10.672   c5.875,0,10.656,4.781,10.656,10.672S379.219,90.734,373.344,90.734z"/>
	<path fill="#CCD1D9" d="M362.656,304.078c0,5.891-4.766,10.656-10.656,10.656s-10.656-4.766-10.656-10.656   s4.766-10.672,10.656-10.672S362.656,298.188,362.656,304.078z"/>
	<path fill="#CCD1D9" d="M405.344,304.078c0,5.891-4.781,10.656-10.688,10.656c-5.875,0-10.656-4.766-10.656-10.656   s4.781-10.672,10.656-10.672C400.562,293.406,405.344,298.188,405.344,304.078z"/>
	<path fill="#CCD1D9" d="M362.656,474.734c0-5.891-4.766-10.656-10.656-10.656s-10.656,4.766-10.656,10.656c0,0.062,0,0.109,0,0.172   h21.312C362.656,474.844,362.656,474.797,362.656,474.734z"/>
	<path fill="#CCD1D9" d="M394.656,464.078c-5.875,0-10.656,4.766-10.656,10.656c0,0.062,0,0.109,0,0.172h21.328   c0-0.062,0.016-0.109,0.016-0.172C405.344,468.844,400.562,464.078,394.656,464.078z"/>
	<path fill="#434A54" d="M501.344,325.406L501.344,325.406v106.672l0,0c5.875,0,10.656-4.781,10.656-10.672v-85.328   C512,330.188,507.219,325.406,501.344,325.406z"/>
	<rect x="501.344" y="368.078" fill="#656D78" width="10.656" height="21.328"/>
	<g>
		<g>
			<polygon fill="#CCD1D9" points="306.266,388.953 199.602,356.953 205.734,336.516 312.406,368.516    "/>
		</g>
		<g>
			<polygon fill="#CCD1D9" points="205.734,420.953 199.602,400.516 306.266,368.516 312.406,388.953    "/>
		</g>
		<g>
			<rect x="204.859" y="368.078" fill="#E6E9ED" width="253.797" height="21.328"/>
		</g>
	</g>
	<g>
		<rect x="458.656" y="154.734" fill="#967ADC" width="42.688" height="21.344"/>
		<rect x="458.656" y="112.078" fill="#967ADC" width="42.688" height="21.328"/>
		<rect x="458.656" y="69.406" fill="#967ADC" width="42.688" height="21.328"/>
	</g>
	<g>
		<rect x="10.664" y="325.406" fill="#E6E9ED" width="202.672" height="149.328"/>
	</g>
	<g>
		<rect x="341.344" y="208.078" fill="#CCD1D9" width="21.312" height="96"/>
	</g>
	<g>
		<rect x="384" y="208.078" fill="#CCD1D9" width="21.344" height="96"/>
	</g>
	<g>
		<rect x="288" y="282.734" fill="#E6E9ED" width="170.656" height="21.344"/>
	</g>
	<g>
		<rect x="288" y="197.406" fill="#E6E9ED" width="170.656" height="21.328"/>
	</g>
	<g>
		<path fill="#E6E9ED" d="M330.656,154.734H288v21.344h42.656c5.906,0,10.688-4.781,10.688-10.672S336.562,154.734,330.656,154.734z    "/>
		<path fill="#E6E9ED" d="M405.344,165.406c0,5.891,4.766,10.672,10.656,10.672h42.656v-21.344H416    C410.109,154.734,405.344,159.516,405.344,165.406z"/>
		<path fill="#E6E9ED" d="M330.656,112.078H288v21.328h42.656c5.906,0,10.688-4.781,10.688-10.672S336.562,112.078,330.656,112.078z    "/>
		<path fill="#E6E9ED" d="M405.344,122.734c0,5.891,4.766,10.672,10.656,10.672h42.656v-21.328H416    C410.109,112.078,405.344,116.844,405.344,122.734z"/>
		<path fill="#E6E9ED" d="M330.656,69.406H288v21.328h42.656c5.906,0,10.688-4.766,10.688-10.656S336.562,69.406,330.656,69.406z"/>
		<path fill="#E6E9ED" d="M416,69.406c-5.891,0-10.656,4.781-10.656,10.672S410.109,90.734,416,90.734h42.656V69.406H416z"/>
	</g>
	<path fill="#434A54" d="M112,464.078c-35.289,0-64-28.719-64-64c0-35.297,28.711-64,64-64s64,28.703,64,64   C176,435.359,147.289,464.078,112,464.078z"/>
	<path fill="#656D78" d="M112,325.406c-41.234,0-74.664,33.422-74.664,74.672c0,41.234,33.43,74.656,74.664,74.656   s74.664-33.422,74.664-74.656C186.664,358.828,153.234,325.406,112,325.406z M58.664,400.078c0-5.5,0.836-10.812,2.391-15.797   l19.289,11.125c-0.227,1.531-0.344,3.078-0.344,4.672c0,2.406,0.273,4.75,0.781,7l-18.992,10.969   C59.773,412.422,58.664,406.375,58.664,400.078z M112,389.406c5.883,0,10.664,4.781,10.664,10.672   c0,5.875-4.781,10.656-10.664,10.656s-10.664-4.781-10.664-10.656C101.336,394.188,106.117,389.406,112,389.406z M143.656,395.406   l19.289-11.125c1.555,4.984,2.391,10.297,2.391,15.797c0,6.297-1.109,12.344-3.125,17.969l-18.992-10.969   c0.508-2.25,0.781-4.594,0.781-7C144,398.484,143.883,396.938,143.656,395.406z M152.641,365.594l-18.961,10.938   c-3.156-2.891-6.891-5.172-11.016-6.625v-22.094C134.578,350.234,145.047,356.656,152.641,365.594z M101.336,347.812v22.094   c-4.125,1.453-7.859,3.734-11.016,6.641l-18.961-10.953C78.953,356.656,89.422,350.234,101.336,347.812z M72.883,436.281   l19.258-11.125c2.734,2.172,5.836,3.906,9.195,5.094v22.078C90.203,450.062,80.328,444.312,72.883,436.281z M122.664,452.328   V430.25c3.359-1.188,6.461-2.922,9.195-5.094l19.258,11.125C143.672,444.312,133.797,450.062,122.664,452.328z"/>
</g>
</svg>